#tb 0: 1/1000
0,          0,          0,        0,     3072, 931ab6a2482c3e84bc7ef8dfbc251307
0,         33,         33,        0,     3072, 3552a9d8470a64ed627a6dbb799b7811
0,         66,         66,        0,     3072, cae1863fc606a0e3df3e708b7eefdf99
0,        100,        100,        0,     3072, 4b825a07e235c4708b12a726da8e4cdf
0,        133,        133,        0,     3072, 0dac578ef616a13be2b9db3c0d775524
0,        166,        166,        0,     3072, bfd47cbab8285f301777351c8bc5553c
0,        200,        200,        0,     3072, f29f9a0cfeaaae3bdeb26933bc7c17dc
0,        233,        233,        0,     3072, c7f3a4d24dcf72ef195a402eff77d8f6
0,        266,        266,        0,     3072, 88ede6207441a7953cf893032c353663
0,        300,        300,        0,     3072, 258f4e86541813e3edb1fe5332ff4ab1
